<?xml version="1.0" encoding="utf-8"?>
<!-- Generator: Adobe Illustrator 23.0.0, SVG Export Plug-In . SVG Version: 6.00 Build 0)  -->
<svg version="1.2" baseProfile="tiny" xmlns="http://www.w3.org/2000/svg" xmlns:xlink="http://www.w3.org/1999/xlink" x="0px"
	 y="0px" viewBox="0 0 425 425" xml:space="preserve">
<g id="Background">
</g>
<g id="Foreground">
</g>
<g id="bakflate">
	<g>
		<rect x="-0.5" y="0.3" fill="#6B2132" width="425.2" height="425.2"/>
	</g>
</g>
<g id="tekst">
	<g>
		<path fill-rule="evenodd" fill="#FFFFFF" d="M119.1,212.5h18.6l7.1-17.5h56.7l7.1,17.5h20.1L174.3,87.1h-2.2L119.1,212.5z
			 M151.4,178.7l15.5-38.7c3.1-7.3,6-18.4,6-18.4s3.1,11.1,6.2,18.4l15.5,38.7H151.4z"/>
		<g>
			<g>
				<polygon fill-rule="evenodd" fill="#FFFFFF" points="31.6,212.5 50.9,212.5 50.9,172.4 103.5,172.4 103.5,155.2 50.9,155.2 
					50.9,105.4 108.8,105.4 108.8,88.4 31.6,88.4 				"/>
			</g>
			<g>
				<rect x="253.7" y="88.4" fill-rule="evenodd" fill="#FFFFFF" width="19.2" height="124.1"/>
			</g>
			<path fill-rule="evenodd" fill="#FFFFFF" d="M371,174.2c16.2-7.1,24.8-20.3,24.8-39.4c0-28.5-19.2-46.3-53.5-46.3h-31v124.1h19.3
				v-31.9h11.7c3.5,0,6.9-0.4,10.4-0.7l22.3,32.7h22.3L371,174.2z M330.7,164v-58.6h10.9c24.3,0,34.5,10.8,34.5,29.4
				c0,18.4-9.9,29.2-34.5,29.2H330.7z"/>
		</g>
	</g>
	<g>
		<path fill-rule="evenodd" fill="#FFFFFF" d="M43.8,282.5c4.4,0,7.8-1.9,9.8-5.1l-2.8-2c-1.5,2.3-3.7,3.7-7,3.7
			c-4.9,0-8.4-3.8-8.4-8.9c0-5.1,3.5-8.8,8.4-8.8c3.1,0,5.3,1.4,6.7,3.4l2.8-2c-2.1-3.1-5.2-4.7-9.5-4.7c-6.7,0-12.2,5.1-12.2,12.1
			C31.6,277.4,37,282.5,43.8,282.5z"/>
		<path fill-rule="evenodd" fill="#FFFFFF" d="M59.7,276.1h11.8c0.2-5.1-2.6-8.8-7.6-8.8c-4.4,0-7.8,3.3-7.8,7.6
			c0,4.4,3.2,7.6,8.3,7.6c2.9,0,4.8-1,6.2-2.4l-2.1-2.2c-0.8,0.8-2.2,1.6-4.2,1.6C61.7,279.6,60.2,278.2,59.7,276.1z M59.7,273.6
			c0.4-2.2,2-3.5,4.3-3.5c2.4,0,3.7,1.5,4,3.5H59.7z"/>
		<path fill-rule="evenodd" fill="#FFFFFF" d="M75.1,282.2h3.5v-8c0-2.4,1.5-3.8,3.8-3.8c2.1,0,3,1.2,3,3.3v8.4H89v-8.7
			c0-4-2.2-6.3-5.5-6.3c-2.2,0-4,1.1-5,3l0.1-2.7h-3.5V282.2z"/>
		<path fill-rule="evenodd" fill="#FFFFFF" d="M98.8,282.6c1.9,0,3-0.7,3.8-1.4l-1.7-2.4c-0.4,0.3-0.9,0.7-1.7,0.7
			c-0.9,0-1.5-0.5-1.5-2.2v-6.8h3.9v-3h-3.9v-7.6h-3.5v7.6H92v3h2.2v6.7C94.2,281.2,96.1,282.6,98.8,282.6z"/>
		<path fill-rule="evenodd" fill="#FFFFFF" d="M105.5,282.2h3.5v-7.1c0-3.3,1.4-4.5,3.5-4.5c0.8,0,1.4,0.2,1.9,0.5l1.2-3.2
			c-0.6-0.4-1.4-0.6-2.4-0.6c-1.6,0-3.3,0.7-4.3,3l0-2.8h-3.5V282.2z"/>
		<path fill-rule="evenodd" fill="#FFFFFF" d="M120.7,276.1h11.8c0.2-5.1-2.6-8.8-7.6-8.8c-4.4,0-7.8,3.3-7.8,7.6
			c0,4.4,3.2,7.6,8.3,7.6c2.9,0,4.8-1,6.2-2.4l-2.1-2.2c-0.8,0.8-2.2,1.6-4.2,1.6C122.7,279.6,121.1,278.2,120.7,276.1z
			 M120.7,273.6c0.4-2.2,2-3.5,4.3-3.5c2.4,0,3.7,1.5,4,3.5H120.7z"/>
		<path fill-rule="evenodd" fill="#FFFFFF" d="M145.3,282.2h3.5v-11.7h3.9v-3h-3.9v-5.8c0-1.5,0.6-2,1.5-2c0.8,0,1.3,0.4,1.7,0.9
			l2.1-2.2c-0.9-1.2-2.2-1.8-4.2-1.8c-3,0-4.7,1.7-4.7,5.2v5.8h-2.4v3h2.4V282.2z"/>
		<path fill-rule="evenodd" fill="#FFFFFF" d="M162.9,282.5c4.5,0,7.9-3.3,7.9-7.6c0-4.4-3.4-7.6-7.9-7.6c-4.4,0-7.9,3.3-7.9,7.6
			C155,279.2,158.4,282.5,162.9,282.5z M162.9,279.5c-2.6,0-4.3-1.9-4.3-4.6c0-2.7,1.7-4.6,4.3-4.6c2.6,0,4.3,1.9,4.3,4.6
			C167.1,277.6,165.5,279.5,162.9,279.5z"/>
		<path fill-rule="evenodd" fill="#FFFFFF" d="M174.4,282.2h3.5v-7.1c0-3.3,1.4-4.5,3.5-4.5c0.8,0,1.4,0.2,1.9,0.5l1.2-3.2
			c-0.6-0.4-1.4-0.6-2.4-0.6c-1.6,0-3.3,0.7-4.3,3l0-2.8h-3.5V282.2z"/>
		<polygon fill-rule="evenodd" fill="#FFFFFF" points="195.8,282.2 211.4,282.2 211.4,279 199.5,279 199.5,274.1 209.6,274.1 
			209.6,270.9 199.5,270.9 199.5,261.7 210.9,261.7 210.9,258.5 195.8,258.5 		"/>
		<path fill-rule="evenodd" fill="#FFFFFF" d="M214,282.2h3.9l2.7-3.7c0.6-0.8,1-2,1-2s0.5,1.3,1.1,2l2.6,3.7h4.2l-5.7-8l4.9-6.7
			h-3.9l-2.1,2.8c-0.5,0.7-0.9,1.8-0.9,1.8s-0.4-1.1-0.9-1.8l-2-2.8h-4.2l5,6.9L214,282.2z"/>
		<path fill-rule="evenodd" fill="#FFFFFF" d="M232.4,289.6h3.6v-9.9c0.8,1.6,2.6,2.8,5,2.8c3.8,0,6.9-3.2,6.9-7.7
			c0-4.4-3-7.6-6.8-7.6c-2.5,0-4.3,1.2-5.2,3l0.1-2.7h-3.6V289.6z M240.1,279.4c-2.6,0-4.3-1.8-4.3-4.6c0-2.7,1.7-4.5,4.3-4.5
			c2.5,0,4.2,1.8,4.2,4.5C244.3,277.6,242.6,279.4,240.1,279.4z"/>
		<path fill-rule="evenodd" fill="#FFFFFF" d="M254.4,276.1h11.8c0.2-5.1-2.6-8.8-7.6-8.8c-4.4,0-7.8,3.3-7.8,7.6
			c0,4.4,3.2,7.6,8.3,7.6c2.9,0,4.8-1,6.2-2.4l-2.1-2.2c-0.8,0.8-2.2,1.6-4.2,1.6C256.4,279.6,254.8,278.2,254.4,276.1z
			 M254.4,273.6c0.4-2.2,2-3.5,4.3-3.5c2.4,0,3.7,1.5,4,3.5H254.4z"/>
		<path fill-rule="evenodd" fill="#FFFFFF" d="M269.8,282.2h3.5v-7.1c0-3.3,1.4-4.5,3.5-4.5c0.8,0,1.4,0.2,1.9,0.5l1.2-3.2
			c-0.6-0.4-1.4-0.6-2.4-0.6c-1.6,0-3.3,0.7-4.3,3l0-2.8h-3.5V282.2z"/>
		<path fill-rule="evenodd" fill="#FFFFFF" d="M284.6,264.2c1.3,0,2.3-0.9,2.3-2.3c0-1.3-1.1-2.3-2.3-2.3c-1.3,0-2.3,1-2.3,2.3
			C282.3,263.3,283.3,264.2,284.6,264.2z M282.8,282.2h3.6v-14.7h-3.6V282.2z"/>
		<path fill-rule="evenodd" fill="#FFFFFF" d="M290.8,282.2h3.5v-8c0-2.4,1.2-3.7,3.3-3.7c2,0,2.7,1.1,2.7,3.1v8.6h3.5v-8
			c0-2.4,1.2-3.7,3.3-3.7c2,0,2.8,1.1,2.8,3.1v8.6h3.5v-8.9c0-3.7-2.1-6-5.5-6c-2.1,0-3.9,1-5,2.8c-0.8-1.8-2.2-2.8-4.3-2.8
			c-1.9,0-3.4,1-4.4,2.8l0.1-2.5h-3.5V282.2z"/>
		<path fill-rule="evenodd" fill="#FFFFFF" d="M320.6,276.1h11.8c0.2-5.1-2.6-8.8-7.6-8.8c-4.4,0-7.8,3.3-7.8,7.6
			c0,4.4,3.2,7.6,8.3,7.6c2.9,0,4.8-1,6.2-2.4l-2.1-2.2c-0.8,0.8-2.2,1.6-4.2,1.6C322.5,279.6,321,278.2,320.6,276.1z M320.6,273.6
			c0.4-2.2,2-3.5,4.3-3.5c2.4,0,3.7,1.5,4,3.5H320.6z"/>
		<path fill-rule="evenodd" fill="#FFFFFF" d="M336,282.2h3.5v-8c0-2.4,1.5-3.8,3.8-3.8c2.1,0,3,1.2,3,3.3v8.4h3.5v-8.7
			c0-4-2.2-6.3-5.5-6.3c-2.2,0-4,1.1-5,3l0.1-2.7H336V282.2z"/>
		<path fill-rule="evenodd" fill="#FFFFFF" d="M359.7,282.6c1.9,0,3-0.7,3.8-1.4l-1.7-2.4c-0.4,0.3-0.9,0.7-1.7,0.7
			c-0.9,0-1.5-0.5-1.5-2.2v-6.8h3.9v-3h-3.9v-7.6H355v7.6h-2.2v3h2.2v6.7C355,281.2,356.9,282.6,359.7,282.6z"/>
		<path fill-rule="evenodd" fill="#FFFFFF" d="M375.3,273.5h-4c-3.3,0-5.8,1.4-5.8,4.4c0,3.3,2.4,4.6,5.3,4.6c2.2,0,3.6-0.8,4.6-2.4
			l-0.1,2.1h3.5v-8.7c0-4.3-2.7-6.3-6.2-6.3c-3.1,0-4.9,1.1-6.1,2.6l2,2.1c0.8-0.9,1.9-1.7,3.8-1.7
			C374.3,270.2,375.3,271.1,375.3,273.5z M375.3,275.9v1.2c0,1.6-1.5,2.6-3.5,2.6c-1.8,0-2.8-0.7-2.8-1.9c0-1.3,1-1.8,2.5-1.8H375.3
			z"/>
		<rect x="383.2" y="257" fill-rule="evenodd" fill="#FFFFFF" width="3.5" height="25.2"/>
	</g>
	<g>
		<path fill-rule="evenodd" fill="#FFFFFF" d="M43,323.4c3.1-1.4,4.7-3.9,4.7-7.5c0-5.4-3.7-8.9-10.2-8.9h-5.9v23.7h3.7v-6.1h2.2
			c0.7,0,1.3-0.1,2-0.1l4.3,6.2H48L43,323.4z M35.3,321.5v-11.2h2.1c4.6,0,6.6,2.1,6.6,5.6c0,3.5-1.9,5.6-6.6,5.6H35.3z"/>
		<path fill-rule="evenodd" fill="#FFFFFF" d="M53.8,324.6h11.8c0.2-5.1-2.6-8.8-7.6-8.8c-4.4,0-7.8,3.3-7.8,7.6
			c0,4.4,3.2,7.6,8.3,7.6c2.9,0,4.8-1,6.2-2.4l-2.1-2.2c-0.8,0.8-2.2,1.6-4.2,1.6C55.7,328.1,54.2,326.8,53.8,324.6z M53.8,322.2
			c0.4-2.2,2-3.5,4.3-3.5c2.4,0,3.7,1.5,4,3.5H53.8z"/>
		<path fill-rule="evenodd" fill="#FFFFFF" d="M74.2,331.1c4.2,0,5.7-2.1,5.7-4.6c0-3.1-2.5-4-4.8-4.6c-2.3-0.6-3.2-0.8-3.2-2
			c0-0.9,0.7-1.4,2.1-1.4c1.3,0,2.3,0.6,3,1.4l2.1-2c-1.1-1.2-2.8-2.2-5.1-2.2c-2.9,0-5.2,1.4-5.2,4.3c0,2.9,2.2,3.9,4.3,4.5
			c2.5,0.7,3.6,0.9,3.6,2.1c0,1-0.8,1.6-2.6,1.6c-1.7,0-3-0.6-3.9-1.9l-2.4,1.7C68.7,329.6,70.9,331.1,74.2,331.1z"/>
		<path fill-rule="evenodd" fill="#FFFFFF" d="M86.2,324.6H98c0.2-5.1-2.6-8.8-7.6-8.8c-4.4,0-7.8,3.3-7.8,7.6
			c0,4.4,3.2,7.6,8.3,7.6c2.9,0,4.8-1,6.2-2.4l-2.1-2.2c-0.8,0.8-2.2,1.6-4.2,1.6C88.2,328.1,86.7,326.8,86.2,324.6z M86.2,322.2
			c0.4-2.2,2-3.5,4.3-3.5c2.4,0,3.7,1.5,4,3.5H86.2z"/>
		<path fill-rule="evenodd" fill="#FFFFFF" d="M110.3,322h-4c-3.3,0-5.8,1.4-5.8,4.4c0,3.3,2.4,4.6,5.3,4.6c2.2,0,3.6-0.8,4.6-2.4
			l-0.1,2.1h3.5v-8.7c0-4.3-2.7-6.3-6.2-6.3c-3.1,0-4.9,1.1-6.1,2.6l2,2.1c0.8-0.9,1.9-1.7,3.8-1.7
			C109.3,318.7,110.3,319.7,110.3,322z M110.3,324.5v1.2c0,1.6-1.5,2.6-3.5,2.6c-1.8,0-2.8-0.7-2.8-1.9c0-1.3,1-1.8,2.5-1.8H110.3z"
			/>
		<path fill-rule="evenodd" fill="#FFFFFF" d="M118.1,330.8h3.5v-7.1c0-3.3,1.4-4.5,3.5-4.5c0.8,0,1.4,0.2,1.9,0.5l1.2-3.2
			c-0.6-0.4-1.4-0.6-2.4-0.6c-1.6,0-3.3,0.7-4.3,3l0-2.8h-3.5V330.8z"/>
		<path fill-rule="evenodd" fill="#FFFFFF" d="M137.6,331.1c2.8,0,4.6-1,6-2.7l-2.4-2.1c-0.8,0.9-1.8,1.6-3.6,1.6
			c-2.6,0-4.2-1.9-4.2-4.5c0-2.6,1.6-4.5,4.2-4.5c1.5,0,2.7,0.7,3.4,1.7l2.5-2c-1.4-1.7-3.2-2.8-5.9-2.8c-4.5,0-7.8,3.3-7.8,7.6
			C129.7,327.8,133.1,331.1,137.6,331.1z"/>
		<path fill-rule="evenodd" fill="#FFFFFF" d="M146.8,330.8h3.5v-8c0-2.4,1.5-3.8,3.8-3.8c2.1,0,3,1.2,3,3.3v8.4h3.5v-8.7
			c0-4-2.2-6.3-5.5-6.3c-2.2,0-3.9,1.1-4.9,2.9v-13.1h-3.5V330.8z"/>
		<path fill-rule="evenodd" fill="#FFFFFF" d="M180,331.1c4.5,0,7.9-3.3,7.9-7.6c0-4.4-3.4-7.6-7.9-7.6c-4.4,0-7.9,3.3-7.9,7.6
			C172,327.8,175.5,331.1,180,331.1z M180,328c-2.6,0-4.3-1.9-4.3-4.6c0-2.7,1.7-4.6,4.3-4.6c2.6,0,4.3,1.9,4.3,4.6
			C184.2,326.1,182.6,328,180,328z"/>
		<path fill-rule="evenodd" fill="#FFFFFF" d="M191.5,330.8h3.5v-8c0-2.4,1.5-3.8,3.8-3.8c2.1,0,3,1.2,3,3.3v8.4h3.5v-8.7
			c0-4-2.2-6.3-5.5-6.3c-2.2,0-4,1.1-5,3l0.1-2.7h-3.5V330.8z"/>
		<polygon fill-rule="evenodd" fill="#FFFFFF" points="218.1,330.8 221.8,330.8 221.8,323.1 231.8,323.1 231.8,319.8 221.8,319.8 
			221.8,310.3 232.8,310.3 232.8,307 218.1,307 		"/>
		<path fill-rule="evenodd" fill="#FFFFFF" d="M244.7,322h-4c-3.3,0-5.8,1.4-5.8,4.4c0,3.3,2.4,4.6,5.3,4.6c2.2,0,3.6-0.8,4.6-2.4
			l-0.1,2.1h3.5v-8.7c0-4.3-2.7-6.3-6.2-6.3c-3.1,0-4.9,1.1-6.1,2.6l2,2.1c0.8-0.9,1.9-1.7,3.8-1.7
			C243.7,318.7,244.7,319.7,244.7,322z M244.7,324.5v1.2c0,1.6-1.5,2.6-3.5,2.6c-1.8,0-2.8-0.7-2.8-1.9c0-1.3,1-1.8,2.5-1.8H244.7z"
			/>
		<path fill-rule="evenodd" fill="#FFFFFF" d="M254.3,312.8c1.3,0,2.3-0.9,2.3-2.3c0-1.3-1.1-2.3-2.3-2.3c-1.3,0-2.3,1-2.3,2.3
			C252,311.8,253.1,312.8,254.3,312.8z M252.5,330.8h3.6v-14.7h-3.6V330.8z"/>
		<path fill-rule="evenodd" fill="#FFFFFF" d="M260.6,330.8h3.5v-7.1c0-3.3,1.4-4.5,3.5-4.5c0.8,0,1.4,0.2,1.9,0.5l1.2-3.2
			c-0.6-0.4-1.4-0.6-2.4-0.6c-1.6,0-3.3,0.7-4.3,3l0-2.8h-3.5V330.8z"/>
		<path fill-rule="evenodd" fill="#FFFFFF" d="M273.5,330.8h3.5v-8c0-2.4,1.5-3.8,3.8-3.8c2.1,0,3,1.2,3,3.3v8.4h3.5v-8.7
			c0-4-2.2-6.3-5.5-6.3c-2.2,0-4,1.1-5,3l0.1-2.7h-3.5V330.8z"/>
		<path fill-rule="evenodd" fill="#FFFFFF" d="M294.4,324.6h11.8c0.2-5.1-2.6-8.8-7.6-8.8c-4.4,0-7.8,3.3-7.8,7.6
			c0,4.4,3.2,7.6,8.3,7.6c2.9,0,4.8-1,6.2-2.4l-2.1-2.2c-0.8,0.8-2.2,1.6-4.2,1.6C296.4,328.1,294.9,326.8,294.4,324.6z
			 M294.4,322.2c0.4-2.2,2-3.5,4.3-3.5c2.4,0,3.7,1.5,4,3.5H294.4z"/>
		<path fill-rule="evenodd" fill="#FFFFFF" d="M314.9,331.1c4.2,0,5.7-2.1,5.7-4.6c0-3.1-2.5-4-4.8-4.6c-2.3-0.6-3.2-0.8-3.2-2
			c0-0.9,0.7-1.4,2.1-1.4c1.3,0,2.3,0.6,3,1.4l2.1-2c-1.1-1.2-2.8-2.2-5.1-2.2c-2.9,0-5.2,1.4-5.2,4.3c0,2.9,2.2,3.9,4.3,4.5
			c2.5,0.7,3.6,0.9,3.6,2.1c0,1-0.8,1.6-2.6,1.6c-1.7,0-3-0.6-3.9-1.9l-2.4,1.7C309.3,329.6,311.6,331.1,314.9,331.1z"/>
		<path fill-rule="evenodd" fill="#FFFFFF" d="M329.3,331.1c4.2,0,5.7-2.1,5.7-4.6c0-3.1-2.5-4-4.8-4.6c-2.3-0.6-3.2-0.8-3.2-2
			c0-0.9,0.7-1.4,2.1-1.4c1.3,0,2.3,0.6,3,1.4l2.1-2c-1.1-1.2-2.8-2.2-5.1-2.2c-2.9,0-5.2,1.4-5.2,4.3c0,2.9,2.2,3.9,4.3,4.5
			c2.5,0.7,3.6,0.9,3.6,2.1c0,1-0.8,1.6-2.6,1.6c-1.7,0-3-0.6-3.9-1.9l-2.4,1.7C323.7,329.6,325.9,331.1,329.3,331.1z"/>
		<path fill-rule="evenodd" fill="#FFFFFF" d="M337.9,334.7h1.8l2.1-4c0.4-0.7,0.7-1.4,0.7-2.2c0-1.4-1.1-2.4-2.4-2.4
			c-1.3,0-2.4,1-2.4,2.3c0,1,0.6,1.8,1.5,2.2L337.9,334.7z"/>
	</g>
	<g>
		<rect x="32.4" y="354.3" fill-rule="evenodd" fill="#FFFFFF" width="3.7" height="23.7"/>
		<path fill-rule="evenodd" fill="#FFFFFF" d="M40.9,378h3.5v-8c0-2.4,1.5-3.8,3.8-3.8c2.1,0,3,1.2,3,3.3v8.4h3.5v-8.7
			c0-4-2.2-6.3-5.5-6.3c-2.2,0-4,1.1-5,3l0.1-2.7h-3.5V378z"/>
		<path fill-rule="evenodd" fill="#FFFFFF" d="M61.9,371.8h11.8c0.2-5.1-2.6-8.8-7.6-8.8c-4.4,0-7.8,3.3-7.8,7.6
			c0,4.4,3.2,7.6,8.3,7.6c2.9,0,4.8-1,6.2-2.4l-2.1-2.2c-0.8,0.8-2.2,1.6-4.2,1.6C63.9,375.3,62.3,374,61.9,371.8z M61.9,369.4
			c0.4-2.2,2-3.5,4.3-3.5c2.4,0,3.7,1.5,4,3.5H61.9z"/>
		<path fill-rule="evenodd" fill="#FFFFFF" d="M88.6,385.4h3.5v-22.1h-3.5l0.1,2.7c-0.9-1.8-2.7-3-5.2-3c-3.7,0-6.8,3.2-6.8,7.6
			c0,4.4,3.1,7.7,6.9,7.7c2.4,0,4.2-1.2,5.1-2.8V385.4z M84.4,375.2c-2.5,0-4.2-1.8-4.2-4.6c0-2.7,1.6-4.5,4.2-4.5
			c2.6,0,4.3,1.8,4.3,4.5C88.7,373.4,87,375.2,84.4,375.2z"/>
		<path fill-rule="evenodd" fill="#FFFFFF" d="M101.7,378.3c2.2,0,4-1.1,4.9-3l-0.1,2.7h3.5v-14.7h-3.5v8c0,2.4-1.4,3.8-3.7,3.8
			c-2.1,0-3-1.2-3-3.3v-8.4h-3.5v8.7C96.3,376,98.5,378.3,101.7,378.3z"/>
		<path fill-rule="evenodd" fill="#FFFFFF" d="M123.3,369.3h-4c-3.3,0-5.8,1.4-5.8,4.4c0,3.3,2.4,4.6,5.3,4.6c2.2,0,3.6-0.8,4.6-2.4
			l-0.1,2.1h3.5v-8.7c0-4.3-2.7-6.3-6.2-6.3c-3.1,0-4.9,1.1-6.1,2.6l2,2.1c0.8-0.9,1.9-1.7,3.8-1.7
			C122.3,365.9,123.3,366.9,123.3,369.3z M123.3,371.7v1.2c0,1.6-1.5,2.6-3.5,2.6c-1.8,0-2.8-0.7-2.8-1.9c0-1.3,1-1.8,2.5-1.8H123.3
			z"/>
		<rect x="131.2" y="352.8" fill-rule="evenodd" fill="#FFFFFF" width="3.5" height="25.2"/>
		<path fill-rule="evenodd" fill="#FFFFFF" d="M141.1,360c1.3,0,2.3-0.9,2.3-2.3c0-1.3-1.1-2.3-2.3-2.3c-1.3,0-2.3,1-2.3,2.3
			C138.8,359,139.9,360,141.1,360z M139.3,378h3.6v-14.7h-3.6V378z"/>
		<path fill-rule="evenodd" fill="#FFFFFF" d="M153.1,378.3c1.9,0,3-0.7,3.8-1.4l-1.7-2.4c-0.4,0.3-0.9,0.7-1.7,0.7
			c-0.9,0-1.5-0.5-1.5-2.2v-6.8h3.9v-3H152v-7.6h-3.5v7.6h-2.2v3h2.2v6.7C148.5,376.9,150.4,378.3,153.1,378.3z"/>
		<path fill-rule="evenodd" fill="#FFFFFF" d="M160.3,385.4h3.6l9.6-22.1h-3.7l-3.1,7.3c-0.5,1.1-0.8,3-0.8,3s-0.3-1.9-0.8-3
			l-3.1-7.3h-3.9l6,13.3L160.3,385.4z"/>
		<path fill-rule="evenodd" fill="#FFFFFF" d="M192.4,369.3h-4c-3.3,0-5.8,1.4-5.8,4.4c0,3.3,2.4,4.6,5.3,4.6c2.2,0,3.6-0.8,4.6-2.4
			l-0.1,2.1h3.5v-8.7c0-4.3-2.7-6.3-6.2-6.3c-3.1,0-4.9,1.1-6.1,2.6l2,2.1c0.8-0.9,1.9-1.7,3.8-1.7
			C191.4,365.9,192.4,366.9,192.4,369.3z M192.4,371.7v1.2c0,1.6-1.5,2.6-3.5,2.6c-1.8,0-2.8-0.7-2.8-1.9c0-1.3,1-1.8,2.5-1.8H192.4
			z"/>
		<path fill-rule="evenodd" fill="#FFFFFF" d="M200.2,378h3.5v-8c0-2.4,1.5-3.8,3.8-3.8c2.1,0,3,1.2,3,3.3v8.4h3.5v-8.7
			c0-4-2.2-6.3-5.5-6.3c-2.2,0-4,1.1-5,3l0.1-2.7h-3.5V378z"/>
		<path fill-rule="evenodd" fill="#FFFFFF" d="M224.5,378.3c2.4,0,4.2-1.2,5.1-3l-0.1,2.7h3.6v-25.2h-3.6v13.1
			c-1-1.7-2.5-2.9-5.1-2.9c-3.7,0-6.8,3.2-6.8,7.6C217.6,375,220.7,378.3,224.5,378.3z M225.4,375.2c-2.5,0-4.2-1.8-4.2-4.6
			c0-2.7,1.6-4.5,4.2-4.5c2.6,0,4.3,1.8,4.3,4.5C229.6,373.4,227.9,375.2,225.4,375.2z"/>
		<path fill-rule="evenodd" fill="#FFFFFF" d="M257.3,370.7c3.1-1.4,4.7-3.9,4.7-7.5c0-5.4-3.7-8.9-10.2-8.9h-5.9V378h3.7v-6.1h2.2
			c0.7,0,1.3-0.1,2-0.1l4.3,6.2h4.3L257.3,370.7z M249.6,368.7v-11.2h2.1c4.6,0,6.6,2.1,6.6,5.6c0,3.5-1.9,5.6-6.6,5.6H249.6z"/>
		<path fill-rule="evenodd" fill="#FFFFFF" d="M274.6,369.3h-4c-3.3,0-5.8,1.4-5.8,4.4c0,3.3,2.4,4.6,5.3,4.6c2.2,0,3.6-0.8,4.6-2.4
			l-0.1,2.1h3.5v-8.7c0-4.3-2.7-6.3-6.2-6.3c-3.1,0-4.8,1.1-6.1,2.6l2,2.1c0.8-0.9,1.9-1.7,3.8-1.7
			C273.6,365.9,274.6,366.9,274.6,369.3z M274.6,371.7v1.2c0,1.6-1.5,2.6-3.5,2.6c-1.8,0-2.8-0.7-2.8-1.9c0-1.3,1-1.8,2.5-1.8H274.6
			z"/>
		<path fill-rule="evenodd" fill="#FFFFFF" d="M287.9,378.3c1.9,0,3-0.7,3.8-1.4l-1.7-2.4c-0.4,0.3-0.9,0.7-1.7,0.7
			c-0.9,0-1.5-0.5-1.5-2.2v-6.8h3.9v-3h-3.9v-7.6h-3.5v7.6h-2.2v3h2.2v6.7C283.3,376.9,285.2,378.3,287.9,378.3z"/>
		<path fill-rule="evenodd" fill="#FFFFFF" d="M296.3,360c1.3,0,2.3-0.9,2.3-2.3c0-1.3-1.1-2.3-2.3-2.3c-1.3,0-2.3,1-2.3,2.3
			C293.9,359,295,360,296.3,360z M294.5,378h3.6v-14.7h-3.6V378z"/>
		<path fill-rule="evenodd" fill="#FFFFFF" d="M309.7,378.3c4.5,0,7.9-3.3,7.9-7.6c0-4.4-3.4-7.6-7.9-7.6c-4.4,0-7.9,3.3-7.9,7.6
			C301.8,375,305.3,378.3,309.7,378.3z M309.7,375.3c-2.6,0-4.3-1.9-4.3-4.6c0-2.7,1.7-4.6,4.3-4.6c2.6,0,4.3,1.9,4.3,4.6
			C314,373.3,312.3,375.3,309.7,375.3z"/>
		<path fill-rule="evenodd" fill="#FFFFFF" d="M321.2,378h3.5v-8c0-2.4,1.5-3.8,3.8-3.8c2.1,0,3,1.2,3,3.3v8.4h3.5v-8.7
			c0-4-2.2-6.3-5.5-6.3c-2.2,0-4,1.1-5,3l0.1-2.7h-3.5V378z"/>
		<path fill-rule="evenodd" fill="#FFFFFF" d="M348.2,369.3h-4c-3.3,0-5.8,1.4-5.8,4.4c0,3.3,2.4,4.6,5.3,4.6c2.2,0,3.6-0.8,4.6-2.4
			l-0.1,2.1h3.5v-8.7c0-4.3-2.7-6.3-6.2-6.3c-3.1,0-4.9,1.1-6.1,2.6l2,2.1c0.8-0.9,1.9-1.7,3.8-1.7
			C347.1,365.9,348.2,366.9,348.2,369.3z M348.2,371.7v1.2c0,1.6-1.5,2.6-3.5,2.6c-1.8,0-2.8-0.7-2.8-1.9c0-1.3,1-1.8,2.5-1.8H348.2
			z"/>
		<rect x="356.1" y="352.8" fill-rule="evenodd" fill="#FFFFFF" width="3.5" height="25.2"/>
		<path fill-rule="evenodd" fill="#FFFFFF" d="M366,360c1.3,0,2.3-0.9,2.3-2.3c0-1.3-1.1-2.3-2.3-2.3c-1.3,0-2.3,1-2.3,2.3
			C363.6,359,364.7,360,366,360z M364.2,378h3.6v-14.7h-3.6V378z"/>
		<path fill-rule="evenodd" fill="#FFFFFF" d="M378,378.3c1.9,0,3-0.7,3.8-1.4l-1.7-2.4c-0.4,0.3-0.9,0.7-1.7,0.7
			c-0.9,0-1.5-0.5-1.5-2.2v-6.8h3.9v-3h-3.9v-7.6h-3.5v7.6h-2.2v3h2.2v6.7C373.3,376.9,375.2,378.3,378,378.3z"/>
		<path fill-rule="evenodd" fill="#FFFFFF" d="M385.1,385.4h3.6l9.6-22.1h-3.7l-3.1,7.3c-0.5,1.1-0.8,3-0.8,3s-0.3-1.9-0.8-3
			l-3.1-7.3h-3.9l6,13.3L385.1,385.4z"/>
	</g>
</g>
<g id="Guides">
</g>
</svg>
